<svg xmlns="http://www.w3.org/2000/svg" version="1.1" xmlns:xlink="http://www.w3.org/1999/xlink" xmlns:svgjs="http://svgjs.dev/svgjs" width="417.62982" height="126.82841"><svg version="1.1" width="417.62982" height="126.82841" id="SvgjsSvg1031" viewBox="0 0 417.62982 126.82841" sodipodi:docname="4f122e0183cdb7b99fab1739024fb958.cdr" xmlns:inkscape="http://www.inkscape.org/namespaces/inkscape" xmlns:sodipodi="http://sodipodi.sourceforge.net/DTD/sodipodi-0.dtd" xmlns="http://www.w3.org/2000/svg" xmlns:svg="http://www.w3.org/2000/svg">
  <defs id="SvgjsDefs1030"></defs>
  <sodipodi:namedview id="SvgjsSodipodi:namedview1029" pagecolor="#ffffff" bordercolor="#666666" borderopacity="1.0" inkscape:pageshadow="2" inkscape:pageopacity="0.0" inkscape:pagecheckerboard="0"></sodipodi:namedview>
  <g id="SvgjsG1028" transform="translate(-212.76606,-231.05559)">
    <path d="m 243.0305,236.1577 c -1.678,16.1772 -6.484,66.8422 -4.2423,97.1906 0.0433,0.5519 0.1976,1.0891 0.4521,1.5802 0.2547,0.4911 0.6059,0.9258 1.0321,1.2789 0.4257,0.353 0.9181,0.6167 1.4481,0.7762 0.5301,0.1594 1.0865,0.2106 1.6366,0.1509 10.6816,-1.137 39.2809,-4.4303 56.2005,-8.7037 1.0548,-0.2656 2.1718,-0.103 3.1073,0.4522 0.9355,0.5546 1.6137,1.4571 1.8867,2.51 1.2885,4.9226 3.4012,13.2188 4.3946,18.4233 0.1056,0.5539 0.0972,1.1235 -0.0253,1.6735 -0.1231,0.55 -0.3571,1.0696 -0.6887,1.5258 -0.3312,0.4562 -0.7523,0.8397 -1.2375,1.1267 -0.4852,0.2876 -1.0244,0.4716 -1.5842,0.5429 -13.6884,1.7447 -58.5625,6.5463 -82.9109,-1.8303 -0.7405,-0.2527 -1.3943,-0.71 -1.8854,-1.319 -0.4911,-0.6092 -0.7995,-1.3451 -0.8889,-2.1225 -1.4143,-12.275 -7.406,-67.0165 -6.9317,-109.0268 0.01,-0.8746 0.2979,-1.724 0.8234,-2.4232 0.5254,-0.6997 1.2607,-1.2128 2.0986,-1.4655 7.3963,-2.2184 14.9578,-3.8452 22.6119,-4.8643 0.6226,-0.0874 1.2562,-0.0317 1.8542,0.162 0.598,0.1938 1.1442,0.5209 1.5971,0.9563 0.4529,0.436 0.8014,0.9691 1.0178,1.5588 0.2171,0.5901 0.2968,1.2219 0.2339,1.847 z" style="fill:#4d8fd1;fill-rule:evenodd" id="SvgjsPath1027"></path>
    <path d="m 298.1209,233.8219 c -5.768,18.4098 -32.3937,121.7715 95.9647,123.7312 0.4924,0.007 0.9816,-0.0841 1.4389,-0.2668 0.4575,-0.1828 0.8748,-0.4542 1.2272,-0.7984 0.3524,-0.344 0.6336,-0.7546 0.8274,-1.2075 0.1937,-0.4529 0.296,-0.9396 0.3012,-1.4325 0.1742,-14.6554 0.4477,-69.8489 -4.4257,-119.404 -0.0926,-0.944 -0.5391,-1.818 -1.2491,-2.4465 -0.7107,-0.6284 -1.6334,-0.9647 -2.5812,-0.9406 -6.2068,0.1469 -19.4704,0.8947 -29.418,4.6538 -0.7866,0.296 -1.4494,0.8481 -1.8828,1.5678 -0.4342,0.7192 -0.6123,1.5633 -0.5073,2.3965 1.5082,12.4181 7.7195,62.3089 12.0824,79.0632 0.1412,0.5319 0.164,1.0885 0.0669,1.6301 -0.0979,0.5416 -0.313,1.0548 -0.6311,1.5043 -0.3182,0.4491 -0.7315,0.823 -1.2097,1.0944 -0.4788,0.272 -1.0114,0.4353 -1.5601,0.4788 -16.1408,1.2841 -66.9761,-0.4698 -34.7249,-79.6535 0.1886,-0.4619 0.2832,-0.9563 0.2786,-1.4545 -0.005,-0.4983 -0.1076,-0.9912 -0.3045,-1.4492 -0.1963,-0.4581 -0.4821,-0.8722 -0.8404,-1.2187 -0.3581,-0.3466 -0.782,-0.6188 -1.2459,-0.8002 -5.9832,-2.3227 -18.3565,-6.7796 -27.6103,-7.6788 -0.8676,-0.0887 -1.7383,0.1251 -2.4666,0.6039 -0.7282,0.4793 -1.2685,1.1954 -1.5297,2.0272 z" style="fill:#4d8fd1;fill-rule:evenodd" id="SvgjsPath1026"></path>
    <path d="m 489.813,267.7732 c 12.5075,-3.4099 -12.1808,62.9617 -18.6021,79.7519 -0.2138,0.5546 -0.3142,1.146 -0.2942,1.7401 0.0202,0.5941 0.1594,1.178 0.4101,1.717 0.2501,0.5385 0.6072,1.0216 1.0483,1.4194 0.4419,0.3978 0.9589,0.7025 1.5207,0.8961 7.3878,2.5197 19.6893,3.5803 26.1513,3.9963 1.141,0.0731 2.2657,-0.2988 3.1385,-1.0373 0.8727,-0.7379 1.4253,-1.7862 1.5425,-2.9234 3.4099,-33.2664 4.8818,-103.1464 5.1553,-117.5063 0.0141,-0.7613 -0.2327,-1.5043 -0.6992,-2.1062 -0.4664,-0.6012 -1.1247,-1.0257 -1.8652,-1.2012 -45.2998,-10.8203 -50.9383,49.9982 -50.9383,49.9982 -16.9327,-53.09 -42.0642,-52.5218 -50.396,-50.6739 -0.7802,0.1715 -1.4727,0.6175 -1.952,1.2562 -0.4803,0.6387 -0.7148,1.4286 -0.6616,2.2255 0.922,13.5772 4.9491,76.7268 4.6718,117.8555 -0.006,0.5897 0.1058,1.1741 0.3286,1.7195 0.2229,0.5462 0.552,1.0419 0.9686,1.4584 0.4172,0.4165 0.9129,0.7464 1.4583,0.9686 0.5457,0.223 1.1301,0.335 1.7196,0.3286 6.5553,-0.0493 18.6779,-0.6221 25.4757,-3.9782 0.9678,-0.4865 1.7232,-1.3125 2.1212,-2.3201 0.3978,-1.008 0.4106,-2.127 0.0356,-3.1436 -7.7189,-21.2558 -49.6134,-140.2393 16.2438,-42.0913 -0.0136,-0.0175 19.6901,-34.6044 33.4187,-38.3498 z" style="fill:#4d8fd1;fill-rule:evenodd" id="SvgjsPath1025"></path>
    <path d="m 629.9183,300.346 c -4.4749,44.1672 -32.3225,60.3709 -64.3671,57.1399 -32.0454,-3.2305 -55.3058,-34.0628 -51.6673,-68.8376 4.5736,-43.7194 32.3265,-60.3709 64.3671,-57.1443 32.0402,3.2264 55.8513,27.3414 51.6673,68.842 z" style="fill:#4d8fd1;fill-rule:evenodd" id="SvgjsPath1024"></path>
    <path d="m 243.0305,236.1309 c -1.1772,11.3932 -3.9158,39.8892 -4.6447,66.3497 l -23.1802,-0.8954 c -1.4636,-19.4742 -2.6356,-41.7196 -2.4121,-61.2255 0.0104,-0.874 0.2988,-1.7221 0.8235,-2.4212 0.5248,-0.699 1.2582,-1.2129 2.094,-1.4674 7.3988,-2.2166 14.961,-3.8426 22.6164,-4.8645 0.6227,-0.0874 1.2563,-0.0316 1.8543,0.162 0.598,0.1938 1.1442,0.521 1.5971,0.9563 0.4529,0.4362 0.8014,0.9693 1.0178,1.5588 0.2171,0.5903 0.2968,1.2221 0.2339,1.8472 z" style="fill:#f8a6bc;fill-rule:evenodd" id="SvgjsPath1023"></path>
    <path d="m 331.8263,243.7696 c -12.709,31.2037 -12.5296,50.3832 -6.6181,62.0893 l -28.4476,-1.1009 c -10.1849,-29.1893 -1.6242,-61.4405 1.3425,-70.9626 0.2623,-0.8351 0.8053,-1.5535 1.5368,-2.033 0.7321,-0.4801 1.6074,-0.6913 2.4775,-0.5987 9.2538,0.8955 21.6096,5.3704 27.6013,7.6969 0.4619,0.1822 0.8837,0.4536 1.2408,0.7996 0.3563,0.346 0.6407,0.7587 0.8371,1.2154 0.1956,0.4568 0.2993,0.9471 0.3045,1.4441 0.005,0.497 -0.0882,0.9893 -0.2748,1.4499 z" style="fill:#f8a6bc;fill-rule:evenodd" id="SvgjsPath1022"></path>
    <path d="m 397.5811,308.6783 -30.0757,-1.1682 c -3.9741,-21.5778 -8.4535,-57.5739 -9.702,-67.8572 -0.0661,-0.5314 -0.0156,-1.0704 0.1476,-1.5796 l 36.5824,8.587 c 1.7636,21.5378 2.6402,43.465 3.0477,62.018 z" style="fill:#f8a6bc;fill-rule:evenodd" id="SvgjsPath1021"></path>
    <path d="m 487.723,268.5294 c -13.5499,6.3144 -31.3469,37.5491 -31.3469,37.5491 -45.5369,-67.8618 -39.5536,-31.9105 -28.9794,3.7636 l -20.1733,-0.7878 c -0.8273,-22.8576 -2.094,-45.4967 -2.9841,-60.0983 l 42.4309,9.9342 c 3.4053,6.3498 6.6856,14.1141 9.7059,23.5831 0.812,-6.8877 2.3908,-13.6632 4.7076,-20.1998 z" style="fill:#f8a6bc;fill-rule:evenodd" id="SvgjsPath1020"></path>
    <path d="m 508.9387,273.5055 c -0.3758,12.3416 -0.8948,26.178 -1.5038,39.4551 l -23.5826,-0.9084 c 5.8175,-17.765 10.8426,-36.1481 9.0933,-42.2877 z" style="fill:#f8a6bc;fill-rule:evenodd" id="SvgjsPath1019"></path>
    <path d="m 557.3351,284.8627 -3.1954,29.9149 -38.287,-1.4945 c -2.1704,-8.0294 -2.8319,-16.3909 -1.9513,-24.6614 0.458,-4.5236 1.2328,-9.0095 2.3181,-13.4249 z" style="fill:#f8a6bc;fill-rule:evenodd" id="SvgjsPath1018"></path>
    <path d="m 554.2921,314.773 c 8.3436,0 15.1075,-6.7639 15.1075,-15.1073 0,-8.3436 -6.7639,-15.1075 -15.1075,-15.1075 -8.3435,0 -15.1075,6.7639 -15.1075,15.1075 0,8.3434 6.764,15.1073 15.1075,15.1073 z" style="fill:#f8a6bc;fill-rule:evenodd" id="SvgjsPath1017"></path>
    <path d="m 554.7896,311.1709 c 6.3319,0 11.4644,-5.1333 11.4644,-11.4652 0,-6.3318 -5.1325,-11.4644 -11.4644,-11.4644 -6.3318,0 -11.4644,5.1326 -11.4644,11.4644 0,6.3319 5.1326,11.4652 11.4644,11.4652 z" style="fill:#ffffff;fill-rule:evenodd" id="SvgjsPath1016"></path>
  </g>
</svg><style>@media (prefers-color-scheme: light) { :root { filter: none; } }
@media (prefers-color-scheme: dark) { :root { filter: none; } }
</style></svg>