<svg width="16" height="16" viewBox="0 0 16 16" fill="none" xmlns="http://www.w3.org/2000/svg">
<path d="M9.75471 1.20835C8.99609 -0.178739 7.00391 -0.178737 6.24529 1.20835L4.74555 3.95052C4.56202 4.2861 4.2861 4.56201 3.95052 4.74554L1.20836 6.24528C-0.178731 7.00391 -0.178729 8.99608 1.20836 9.7547L3.95052 11.2544C4.2861 11.438 4.56202 11.7139 4.74555 12.0495L6.24529 14.7916C7.00391 16.1787 8.99609 16.1787 9.75471 14.7916L11.2544 12.0495C11.438 11.7139 11.7139 11.438 12.0495 11.2544L14.7916 9.7547C16.1787 8.99608 16.1787 7.00391 14.7916 6.24528L12.0495 4.74554C11.7139 4.56201 11.438 4.2861 11.2544 3.95052L9.75471 1.20835Z" fill="#C0E1ED"/>
</svg>
